<svg xmlns="http://www.w3.org/2000/svg" width="16" height="16" viewBox="0 0 16 16"><defs><style>.a,.b{fill:#1b82a8;}.a{opacity:0;}</style></defs><rect class="a" width="16" height="16"/><path class="b" d="M14.805,3.716,12.284,1.194a.531.531,0,0,0-.379-.154H11.89a.6.6,0,0,0-.405.178L2.351,10.35a.433.433,0,0,0-.11.185L1.027,14.6c-.05.165.2.372.342.372a.11.11,0,0,0,.027,0c.121-.028,3.439-1.025,4.071-1.215a.425.425,0,0,0,.181-.109l9.133-9.134a.6.6,0,0,0,.175-.386.534.534,0,0,0-.151-.413ZM5.113,12.949c-.945.284-2.126.641-2.942.884l.878-2.943Z"/></svg>