<svg xmlns="http://www.w3.org/2000/svg" xmlns:xlink="http://www.w3.org/1999/xlink" width="253.594" height="227.054" viewBox="0 0 253.594 227.054"><defs><style>.a,.e{opacity:0.3;}.b{fill:url(#a);}.c{fill:#f5f5f5;}.d{fill:#fff;}.e,.h{fill:#1b82a8;}.f{fill:url(#d);}.g{fill:url(#e);}.i{fill:url(#g);}</style><linearGradient id="a" x1="0.5" y1="1" x2="0.5" gradientUnits="objectBoundingBox"><stop offset="0" stop-color="gray" stop-opacity="0.251"/><stop offset="0.535" stop-color="gray" stop-opacity="0.122"/><stop offset="1" stop-color="gray" stop-opacity="0.102"/></linearGradient><linearGradient id="d" x1="0.5" y1="1" x2="0.5" gradientUnits="objectBoundingBox"><stop offset="0" stop-color="#b3b3b3" stop-opacity="0.251"/><stop offset="0.535" stop-color="#b3b3b3" stop-opacity="0.102"/><stop offset="1" stop-color="#b3b3b3" stop-opacity="0.051"/></linearGradient><linearGradient id="e" x1="0.5" y1="1" x2="0.5" gradientUnits="objectBoundingBox"><stop offset="0" stop-opacity="0.122"/><stop offset="0.551" stop-opacity="0.09"/><stop offset="1" stop-opacity="0.02"/></linearGradient><linearGradient id="g" x1="0.5" y1="1" x2="0.5" gradientUnits="objectBoundingBox"><stop offset="0.005" stop-opacity="0.122"/><stop offset="0.551" stop-opacity="0.09"/><stop offset="1" stop-opacity="0.051"/></linearGradient></defs><g class="a" transform="translate(0 0)"><path class="b" d="M85.087,265.942,0,273.935V73.627l85.087-7.993Z" transform="translate(0 -46.882)"/><path class="b" d="M297.81,265.942l85.088,7.993V73.627L297.81,65.634Z" transform="translate(-212.723 -46.882)"/><path class="b" d="M679.04,265.942l-83.419,7.993V73.627l83.419-7.993Z" transform="translate(-425.446 -46.882)"/><path class="c" d="M92.166,266.093l-82.678,7.68V81.309l82.678-7.68Z" transform="translate(-6.777 -52.593)"/><path class="d" d="M298.865,266.093l82.678,7.68V81.309l-82.678-7.68Z" transform="translate(-213.476 -52.593)"/><path class="c" d="M670.92,266.093l-82.678,7.68V81.309l82.678-7.68Z" transform="translate(-420.175 -52.593)"/><path class="e" d="M141.864,135.494l-62.8,2.2v28.915h53.311V156.157l9.488-.333,14.457,4.462V139.957Z" transform="translate(-56.475 -96.782)"/><path class="e" d="M122.663,637.021,52.183,643.8V618.046l70.48-6.777Z" transform="translate(-37.274 -436.623)"/><path class="e" d="M95.663,358.021,25.183,364.8V339.046l70.48-6.777Z" transform="translate(-17.988 -237.337)"/><rect class="e" width="30.722" height="23.493" transform="translate(126.954 180.519)"/><rect class="e" width="30.722" height="23.493" transform="translate(116.954 125.377)"/><rect class="e" width="30.722" height="23.493" transform="translate(129.525 51.949)"/><path class="e" d="M716.778,598.167l-47.89,4.066V571.059l47.89-4.066Z" transform="translate(-477.78 -404.998)"/><path class="e" d="M696.778,214.167l-47.89,4.066V187.059l47.89-4.066Z" transform="translate(-463.494 -130.71)"/><path class="f" d="M860.593,91.444c0,11.177-19.537,42.828-19.537,42.828s-19.538-31.651-19.538-42.828,8.747-20.237,19.537-20.237S860.593,80.267,860.593,91.444Z" transform="translate(-631.431 -65.905)"/><ellipse class="g" cx="5.907" cy="6.118" rx="5.907" ry="6.118" transform="translate(203.718 18.009)"/><path class="h" d="M862.781,96.967c0,9.985-18.079,38.26-18.079,38.26s-18.079-28.275-18.079-38.26a18.079,18.079,0,1,1,36.158,0Z" transform="translate(-635.078 -71.392)"/><circle class="d" cx="5.466" cy="5.466" r="5.466" transform="translate(204.159 18.848)"/><path class="f" d="M280.97,534.37c0,11.256-20.117,43.131-20.117,43.131s-20.117-31.875-20.117-43.131a20.119,20.119,0,1,1,40.235,0Z" transform="translate(-216.584 -382.181)"/><ellipse class="i" cx="6.082" cy="6.162" rx="6.082" ry="6.162" transform="translate(38.186 144.606)"/><path class="h" d="M284.027,539.729c0,9.985-18.079,38.26-18.079,38.26s-18.079-28.275-18.079-38.26a18.079,18.079,0,0,1,36.158,0Z" transform="translate(-221.68 -387.652)"/><circle class="d" cx="5.466" cy="5.466" r="5.466" transform="translate(38.803 145.35)"/><path class="h" d="M627.027,544.729c0,9.985-18.079,38.26-18.079,38.26s-18.079-28.275-18.079-38.26a18.079,18.079,0,0,1,36.158,0Z" transform="translate(-466.681 -391.224)"/><circle class="d" cx="5.466" cy="5.466" r="5.466" transform="translate(136.801 146.778)"/><path class="h" d="M875.027,504.729c0,9.985-18.079,38.26-18.079,38.26s-18.079-28.275-18.079-38.26a18.079,18.079,0,0,1,36.158,0Z" transform="translate(-643.825 -362.652)"/><circle class="d" cx="5.466" cy="5.466" r="5.466" transform="translate(207.657 135.35)"/><path class="h" d="M316.027,70.729c0,9.985-18.079,38.26-18.079,38.26s-18.079-28.275-18.079-38.26a18.079,18.079,0,1,1,36.158,0Z" transform="translate(-244.537 -52.65)"/><circle class="d" cx="5.466" cy="5.466" r="5.466" transform="translate(47.945 11.352)"/></g></svg>