<svg xmlns="http://www.w3.org/2000/svg" xmlns:xlink="http://www.w3.org/1999/xlink" width="53.389" height="55.448" viewBox="0 0 53.389 55.448"><defs><style>.a{fill:url(#a);}.b{fill:#fff;}.c{fill:url(#b);}.d{fill:url(#c);}.e{fill:#32e0c4;}</style><linearGradient id="a" x1="-0.433" y1="-0.418" x2="1.583" y2="1.523" gradientUnits="objectBoundingBox"><stop offset="0" stop-color="#32e0c4"/><stop offset="0.46" stop-color="#1b82a8"/><stop offset="0.68" stop-color="#24579f"/><stop offset="0.97" stop-color="#302394"/></linearGradient><linearGradient id="b" x1="-0.495" y1="0.177" x2="4.485" y2="1.793" gradientUnits="objectBoundingBox"><stop offset="0" stop-color="#1b82a8"/><stop offset="1" stop-color="#302394"/></linearGradient><linearGradient id="c" x1="0.5" y1="0.851" x2="0.5" y2="-0.95" xlink:href="#b"/></defs><g transform="translate(-0.301 -0.487)"><path class="a" d="M46.51,49.435a26.694,26.694,0,1,0-7.12,5.428L43.2,58.675a4.438,4.438,0,0,0,6.275,0h0a4.438,4.438,0,0,0,0-6.275Z" transform="translate(0 -4.04)"/><circle class="b" cx="23.311" cy="23.311" r="23.311" transform="translate(3.667 3.966)"/><g transform="translate(7.973 12.802)"><rect class="c" width="8.7" height="26.815" rx="4.35" transform="translate(0 6.473) rotate(-45)"/><rect class="d" width="8.7" height="24.676" rx="4.35" transform="translate(36.18 26.785) rotate(180)"/><rect class="e" width="8.7" height="25.082" rx="4.35" transform="translate(1.588 1.78)"/><rect class="e" width="8.7" height="27.261" rx="4.35" transform="translate(19.043 25.428) rotate(-135)"/></g></g></svg>