<svg xmlns="http://www.w3.org/2000/svg" xmlns:xlink="http://www.w3.org/1999/xlink" width="145" height="251.212" viewBox="0 0 145 251.212"><defs><style>.a{fill:url(#a);}.b{fill:#1b82a8;font-size:25px;font-family:Quicksand-Medium, Quicksand;font-weight:500;letter-spacing:0.01em;}.c{fill:#5fdde5;font-size:68px;font-family:Quicksand-Light, Quicksand;font-weight:300;letter-spacing:-0.1em;}.d{fill:#fff;}.e{fill:url(#b);}.f{fill:url(#c);}.g{fill:#32e0c4;}</style><linearGradient id="a" x1="-0.433" y1="-0.418" x2="1.583" y2="1.524" gradientUnits="objectBoundingBox"><stop offset="0" stop-color="#32e0c4"/><stop offset="0.46" stop-color="#1b82a8"/><stop offset="0.68" stop-color="#24579f"/><stop offset="0.97" stop-color="#302394"/></linearGradient><linearGradient id="b" x1="-0.495" y1="0.177" x2="4.485" y2="1.793" gradientUnits="objectBoundingBox"><stop offset="0" stop-color="#1b82a8"/><stop offset="1" stop-color="#302394"/></linearGradient><linearGradient id="c" x1="0.5" y1="0.851" x2="0.5" y2="-0.95" xlink:href="#b"/></defs><g transform="translate(1.147 -0.945)"><path class="a" d="M166.848,162.356a71.354,71.354,0,0,0,.73-97.218,72.976,72.976,0,0,0-97.7-8.906,71.4,71.4,0,0,0-17.182,95.718,72.881,72.881,0,0,0,94.81,25.024l10.357,10.257a12.138,12.138,0,0,0,17.05,0h0a11.861,11.861,0,0,0,0-16.888Z" transform="translate(-42.48 -40.572)"/><g transform="translate(7.853 150.345)"><g transform="translate(4.842)"><text class="b" transform="translate(0 25)"><tspan x="0" y="0">B</tspan><tspan y="0">U</tspan><tspan y="0">SCA</tspan></text></g><g transform="translate(0 16.812)"><text class="c" transform="translate(0 68)"><tspan x="0" y="0">MED</tspan></text></g></g><circle class="d" cx="63.2" cy="63.2" r="63.2" transform="translate(9.453 9.945)"/><g transform="translate(21.13 33.905)"><rect class="e" width="23.589" height="72.7" rx="11.794" transform="translate(0 17.546) rotate(-45)"/><rect class="f" width="23.589" height="66.902" rx="11.794" transform="translate(98.09 72.61) rotate(180)"/><rect class="g" width="23.589" height="68.002" rx="11.794" transform="translate(4.306 4.822)"/><rect class="g" width="23.589" height="73.909" rx="11.794" transform="translate(51.625 68.942) rotate(-135)"/></g></g></svg>